<svg width="256" height="256" viewBox="0 0 256 256" fill="none" xmlns="http://www.w3.org/2000/svg">
<path d="M127.234 133.868C115.306 133.868 105.637 124.198 105.637 112.27L105.637 62.7233C105.637 50.7953 115.306 41.1258 127.234 41.1258C139.162 41.1258 148.832 50.7953 148.832 62.7233L148.832 112.27C148.832 124.198 139.162 133.868 127.234 133.868Z" fill="url(#paint0_linear_112_140)"/>
<path d="M127.552 224.069C180.701 224.069 223.787 180.272 223.787 126.245L223.787 41.9398C223.787 35.8827 218.877 30.9725 212.82 30.9725V30.9725C193.784 30.9725 178.352 46.4046 178.352 65.4411L178.352 126.245C178.352 154.837 155.608 178.016 127.552 178.016C99.4957 178.016 76.7518 154.837 76.7518 126.245C76.7518 97.6532 99.4957 74.4748 127.552 74.4748C135.655 74.4748 141.895 75.9588 148.692 79.3978L149.101 55.6311C149.32 42.8481 140.337 30.9725 127.552 30.9725V30.9725C74.4021 30.9725 31.3159 72.2186 31.3159 126.245C31.3159 180.272 74.4021 224.069 127.552 224.069Z" fill="url(#paint1_linear_112_140)"/>
<mask id="mask0_112_140" style="mask-type:alpha" maskUnits="userSpaceOnUse" x="31" y="30" width="193" height="195">
<path d="M127.236 224.069C180.385 224.069 223.471 180.272 223.471 126.245L223.471 53.6907C223.471 41.1439 213.3 30.9727 200.754 30.9727C188.207 30.9727 178.036 41.1439 178.036 53.6907L178.036 126.245C178.036 154.837 155.292 178.016 127.236 178.016C99.1798 178.016 76.4359 154.837 76.4359 126.245C76.4359 97.6534 99.1798 74.4751 127.236 74.4751C137.377 74.4751 148.579 67.612 148.753 57.4727L148.893 49.3429C149.05 40.196 142.637 31.9672 133.518 31.2368C131.428 31.0695 129.326 30.9727 127.236 30.9727C74.0862 30.9727 31 72.2189 31 126.245C31 180.272 74.0862 224.069 127.236 224.069Z" fill="#939494"/>
</mask>
<g mask="url(#mask0_112_140)">
<path d="M103.414 78.5808C52.0878 87.9149 32.0043 130.516 28.1401 148.16L17.9766 126.532L46.2438 34.0443L151.373 23.6571L151.373 73.1738C147.667 73.6006 132.888 75.2797 103.414 78.5808Z" fill="url(#paint2_linear_112_140)"/>
<path d="M91.3455 162.135C98.531 224.819 136.183 244.019 157.03 250.113C240.729 220.86 236.648 106.62 225.393 53.5125C192.981 188.338 118.342 193.42 91.3455 162.135Z" fill="url(#paint3_linear_112_140)"/>
</g>
<defs>
<linearGradient id="paint0_linear_112_140" x1="185.576" y1="224.069" x2="174.406" y2="16.2769" gradientUnits="userSpaceOnUse">
<stop stop-color="#FFEF80"/>
<stop offset="0.354303" stop-color="#3EE8B5"/>
<stop offset="0.622136" stop-color="#0CC5DB"/>
<stop offset="1" stop-color="#0762FE"/>
</linearGradient>
<linearGradient id="paint1_linear_112_140" x1="185.576" y1="224.069" x2="174.406" y2="16.2769" gradientUnits="userSpaceOnUse">
<stop stop-color="#FFEF80"/>
<stop offset="0.354303" stop-color="#3EE8B5"/>
<stop offset="0.622136" stop-color="#0CC5DB"/>
<stop offset="1" stop-color="#0762FE"/>
</linearGradient>
<linearGradient id="paint2_linear_112_140" x1="124.89" y1="148.16" x2="118.187" y2="14.1299" gradientUnits="userSpaceOnUse">
<stop stop-color="#FFEF80"/>
<stop offset="0.354303" stop-color="#3EE8B5"/>
<stop offset="0.622136" stop-color="#0CC5DB"/>
<stop offset="1" stop-color="#0762FE"/>
</linearGradient>
<linearGradient id="paint3_linear_112_140" x1="203.604" y1="250.113" x2="187.736" y2="39.1324" gradientUnits="userSpaceOnUse">
<stop stop-color="#FFEF80"/>
<stop offset="0.354303" stop-color="#3EE8B5"/>
<stop offset="0.622136" stop-color="#0CC5DB"/>
<stop offset="1" stop-color="#0762FE"/>
</linearGradient>
</defs>
</svg>
