<svg width="406" height="109" viewBox="0 0 406 109" fill="none" xmlns="http://www.w3.org/2000/svg">
<path d="M139.801 36.8759C138.92 39.6448 137.409 41.8892 135.27 43.6092C133.13 45.3293 130.487 46.1893 127.341 46.1893C123.188 46.1893 119.79 44.7419 117.147 41.8472C114.504 38.9106 113.182 35.2188 113.182 30.7719C113.182 25.9893 114.671 22.0458 117.65 18.9414C120.671 15.8369 124.027 14.2847 127.718 14.2847C131.242 14.2847 134.158 15.6062 136.465 18.2492C138.815 20.8502 139.906 23.619 139.738 26.5557H119.538V27.7513C119.538 32.0724 120.524 35.3447 122.495 37.5681C124.467 39.7496 127.152 40.8404 130.55 40.8404C134.158 40.8404 137.116 39.435 139.423 36.6242L139.801 36.8759ZM127.467 15.4174C125.159 15.4174 123.334 16.3613 121.992 18.2492C120.691 20.0951 119.915 22.5283 119.664 25.5488L133.319 25.2342V24.542C133.319 18.4589 131.368 15.4174 127.467 15.4174Z" fill="#090909"/>
<path d="M147.549 45.2454H140.375V45.1195C141.717 44.1127 142.85 43.0848 143.773 42.036C144.696 40.9872 145.955 39.435 147.549 37.3793L152.08 31.2753L146.668 22.6541C144.402 19.0463 142.493 16.613 140.941 15.3545V15.2286H152.205V15.3545C151.031 16.3194 151.345 18.2492 153.149 21.1439L157.366 27.8143L160.071 23.9756C162.379 20.7453 162.924 17.8716 161.708 15.3545V15.2286H168.881V15.3545C166.658 17.1584 164.351 19.7385 161.959 23.0946L157.932 28.7582L163.658 37.8828C165.42 40.6936 167.392 43.1058 169.574 45.1195V45.2454H158.372V45.1195C158.792 44.5322 158.981 43.9239 158.939 43.2946C158.897 42.6653 158.771 42.1619 158.561 41.7843C158.351 41.3648 157.869 40.5257 157.114 39.2672L152.646 32.2192L149.437 36.4983C147.087 39.6028 146.458 42.4765 147.549 45.1195V45.2454Z" fill="#090909"/>
<path d="M188.621 45.0566C191.138 45.0566 193.151 43.798 194.662 41.2809C196.172 38.7638 196.927 35.3656 196.927 31.0865C196.927 26.7655 196.109 23.5771 194.473 21.5214C192.837 19.4238 190.592 18.375 187.74 18.375C185.055 18.375 182.726 19.235 180.755 20.9551V33.6036C180.755 37.5891 181.552 40.5048 183.146 42.3507C184.74 44.1546 186.565 45.0566 188.621 45.0566ZM173.014 59.4042V59.2783C173.979 56.4256 174.462 52.3982 174.462 47.1961V25.6118C174.462 22.2976 173.518 19.5707 171.63 17.4311V17.3052L180.503 13.9701V19.5077L180.88 19.5707C183.985 16.0467 187.551 14.2847 191.578 14.2847C195.144 14.2847 198.018 15.753 200.199 18.6897C202.423 21.5844 203.535 25.3181 203.535 29.8909C203.535 34.6315 202.192 38.533 199.507 41.5955C196.822 44.658 192.984 46.1893 187.991 46.1893C185.181 46.1893 182.768 45.7068 180.755 44.7419V47.1332C180.755 52.6709 181.216 56.7193 182.139 59.2783V59.4042H173.014Z" fill="#090909"/>
<path d="M233.64 36.8759C232.759 39.6448 231.249 41.8892 229.109 43.6092C226.969 45.3293 224.327 46.1893 221.18 46.1893C217.027 46.1893 213.629 44.7419 210.986 41.8472C208.343 38.9106 207.021 35.2188 207.021 30.7719C207.021 25.9893 208.511 22.0458 211.489 18.9414C214.51 15.8369 217.866 14.2847 221.558 14.2847C225.082 14.2847 227.997 15.6062 230.305 18.2492C232.654 20.8502 233.745 23.619 233.577 26.5557H213.377V27.7513C213.377 32.0724 214.363 35.3447 216.335 37.5681C218.306 39.7496 220.991 40.8404 224.389 40.8404C227.997 40.8404 230.955 39.435 233.262 36.6242L233.64 36.8759ZM221.306 15.4174C218.999 15.4174 217.174 16.3613 215.831 18.2492C214.531 20.0951 213.755 22.5283 213.503 25.5488L227.158 25.2342V24.542C227.158 18.4589 225.207 15.4174 221.306 15.4174Z" fill="#090909"/>
<path d="M238.401 45.2454V45.1195C239.366 42.2668 239.848 38.2394 239.848 33.0373V25.6118C239.848 22.2976 238.904 19.5707 237.016 17.4311V17.3052L245.889 13.9701V21.6473H246.141C247.483 20.0531 248.469 18.8994 249.099 18.1862C249.728 17.4731 250.735 16.655 252.119 15.732C253.546 14.7671 254.888 14.2847 256.147 14.2847L256.021 21.9619H255.769C255.224 21.5005 254.322 21.0809 253.063 20.7034C251.846 20.2839 250.882 20.0741 250.168 20.0741C248.868 20.0741 247.525 21.018 246.141 22.9059V32.9744C246.141 38.554 246.602 42.6024 247.525 45.1195V45.2454H238.401Z" fill="#090909"/>
<path d="M267.753 1.13271C268.508 1.88785 268.886 2.78982 268.886 3.83862C268.886 4.88742 268.508 5.78939 267.753 6.54453C267.04 7.25772 266.159 7.61431 265.11 7.61431C264.062 7.61431 263.16 7.25772 262.404 6.54453C261.691 5.78939 261.335 4.88742 261.335 3.83862C261.335 2.78982 261.691 1.88785 262.404 1.13271C263.16 0.377569 264.062 0 265.11 0C266.159 0 267.04 0.377569 267.753 1.13271ZM260.831 45.1195C261.796 41.0502 262.279 37.0227 262.279 33.0373V25.8635C262.279 22.5912 261.335 19.8853 259.447 17.7457V17.3052L268.571 13.9701V32.9744C268.571 36.0788 268.655 38.4911 268.823 40.2111C268.991 41.8892 269.369 43.5253 269.956 45.1195V45.2454H260.831V45.1195Z" fill="#090909"/>
<path d="M284.889 45.2454H275.764V45.1195C276.729 42.2668 277.212 38.2394 277.212 33.0373V25.6118C277.212 22.2976 276.268 19.5707 274.38 17.4311V17.3052L283.253 13.9701V20.0112L283.505 20.0741C286.106 16.2145 289.315 14.2847 293.133 14.2847C297.538 14.2847 300.013 16.1935 300.558 20.0112L300.747 20.0741C303.39 16.2145 306.62 14.2847 310.438 14.2847C315.514 14.2847 318.052 17.0745 318.052 22.6541V32.9744C318.052 36.2047 318.115 38.6379 318.241 40.274C318.409 41.9102 318.807 43.5253 319.437 45.1195V45.2454H310.375V45.1195C311.298 42.1409 311.759 38.1135 311.759 33.0373V24.1015C311.759 20.116 310.207 18.1233 307.103 18.1233C304.376 18.1233 302.257 19.256 300.747 21.5214V32.9744C300.747 36.1208 300.831 38.533 300.999 40.2111C301.166 41.8472 301.565 43.4834 302.194 45.1195V45.2454H293.07V45.1195C293.993 42.4346 294.454 38.4072 294.454 33.0373V24.1015C294.454 20.116 292.902 18.1233 289.797 18.1233C287.112 18.1233 285.015 19.256 283.505 21.5214V32.9744C283.505 38.554 283.966 42.6024 284.889 45.1195V45.2454Z" fill="#090909"/>
<path d="M350.524 36.8759C349.643 39.6448 348.133 41.8892 345.993 43.6092C343.854 45.3293 341.211 46.1893 338.064 46.1893C333.911 46.1893 330.513 44.7419 327.87 41.8472C325.227 38.9106 323.905 35.2188 323.905 30.7719C323.905 25.9893 325.395 22.0458 328.373 18.9414C331.394 15.8369 334.75 14.2847 338.442 14.2847C341.966 14.2847 344.881 15.6062 347.189 18.2492C349.538 20.8502 350.629 23.619 350.461 26.5557H330.261V27.7513C330.261 32.0724 331.247 35.3447 333.219 37.5681C335.191 39.7496 337.875 40.8404 341.274 40.8404C344.881 40.8404 347.839 39.435 350.146 36.6242L350.524 36.8759ZM338.19 15.4174C335.883 15.4174 334.058 16.3613 332.715 18.2492C331.415 20.0951 330.639 22.5283 330.387 25.5488L344.042 25.2342V24.542C344.042 18.4589 342.092 15.4174 338.19 15.4174Z" fill="#090909"/>
<path d="M364.41 45.2454H355.285V45.1195C356.25 42.2668 356.732 38.2394 356.732 33.0373V25.6118C356.732 22.2976 355.788 19.5707 353.901 17.4311V17.3052L362.773 13.9701V20.0112L363.025 20.0741C366.213 16.2145 369.591 14.2847 373.157 14.2847C376.009 14.2847 378.191 15.1028 379.701 16.7389C381.253 18.3331 382.029 20.5565 382.029 23.4093V32.9744C382.029 36.1208 382.113 38.533 382.281 40.2111C382.449 41.8472 382.848 43.4834 383.477 45.1195V45.2454H374.352V45.1195C375.275 42.1409 375.737 38.1135 375.737 33.0373V24.8566C375.737 22.8849 375.254 21.2697 374.289 20.0112C373.366 18.7526 371.919 18.1233 369.947 18.1233C367.304 18.1233 364.997 19.1721 363.025 21.2697V32.9744C363.025 38.554 363.487 42.6024 364.41 45.1195V45.2454Z" fill="#090909"/>
<path d="M397.945 46.1893C393.247 46.1893 390.897 43.6512 390.897 38.575V16.3613H387.499V15.9838L396.624 8.11774H397.253V15.2286H405.371V16.3613H397.253V38.3862C397.253 41.4906 398.721 43.0429 401.658 43.0429C403.252 43.0429 404.637 42.6863 405.811 41.9731L406 42.2248C404.112 44.8678 401.427 46.1893 397.945 46.1893Z" fill="#090909"/>
<path d="M114.566 104.906C115.489 102.934 115.951 100.06 115.951 96.2844V67.6521C115.951 64.3799 115.007 61.6739 113.119 59.5344V59.4085L122.244 56.0733V96.2215C122.244 100.291 122.726 103.186 123.691 104.906V105.031H114.566V104.906Z" fill="#090909"/>
<path d="M138.874 102.577C141.014 102.577 142.734 101.969 144.035 100.752V91.1873C137.532 92.6556 134.281 95.1098 134.281 98.5499C134.281 99.8084 134.679 100.794 135.476 101.507C136.273 102.221 137.406 102.577 138.874 102.577ZM149.383 105.787C146.447 105.787 144.706 104.465 144.16 101.822C141.727 104.591 138.707 105.975 135.099 105.975C133.127 105.975 131.512 105.514 130.253 104.591C128.995 103.668 128.365 102.347 128.365 100.626C128.365 98.6547 129.246 96.8928 131.008 95.3405C132.77 93.7883 134.742 92.6346 136.924 91.8795C139.147 91.0824 141.517 90.4951 144.035 90.1175V83.2583C144.035 81.4963 143.594 80.1539 142.713 79.2309C141.832 78.308 140.343 77.8465 138.245 77.8465C134.973 77.8465 132.183 78.7904 129.876 80.6783L129.561 80.3007C132.456 76.1474 136.63 74.0708 142.084 74.0708C144.978 74.0708 147.076 74.784 148.377 76.2104C149.677 77.5948 150.327 79.3777 150.327 81.5593V99.4938C150.327 101.34 151.145 102.263 152.782 102.263C153.83 102.263 154.858 101.864 155.865 101.067L155.991 101.193C154.439 104.255 152.236 105.787 149.383 105.787Z" fill="#090909"/>
<path d="M172.669 105.975C168.641 105.975 165.264 104.927 162.537 102.829L159.391 105.661H159.139V67.6521C159.139 64.3379 158.195 61.611 156.308 59.4715V59.3456L165.432 56.0733V79.3568H165.558C168.662 75.8328 172.186 74.0708 176.13 74.0708C179.822 74.0708 182.758 75.5181 184.94 78.4128C187.121 81.3075 188.212 85.0623 188.212 89.677C188.212 94.4176 186.87 98.3191 184.185 101.382C181.5 104.444 177.661 105.975 172.669 105.975ZM173.298 104.843C175.815 104.843 177.829 103.584 179.339 101.067C180.85 98.5499 181.605 95.1517 181.605 90.8726C181.605 86.5516 180.787 83.3632 179.15 81.3075C177.514 79.2099 175.249 78.1611 172.354 78.1611C169.711 78.1611 167.404 79.0212 165.432 80.7412V93.3897C165.432 97.3332 166.229 100.228 167.823 102.074C169.46 103.92 171.284 104.843 173.298 104.843Z" fill="#090909"/>
<path d="M211.858 82.1885L211.48 82.3144C208.711 77.5738 205.46 75.2035 201.726 75.2035C200.132 75.2035 198.874 75.644 197.951 76.525C197.028 77.406 196.566 78.5177 196.566 79.8602C196.566 80.9929 197.007 82.0207 197.888 82.9437C198.769 83.8247 199.671 84.4959 200.594 84.9574C201.517 85.3769 202.88 85.9432 204.684 86.6564C207.453 87.8311 209.634 89.1736 211.229 90.6838C212.823 92.1522 213.62 94.2288 213.62 96.9137C213.62 99.8923 212.529 102.158 210.348 103.71C208.166 105.22 205.334 105.975 201.852 105.975C198.832 105.975 195.748 105.43 192.602 104.339L191.973 96.2844L192.35 96.1586C193.944 99.2211 195.559 101.445 197.196 102.829C198.832 104.171 200.657 104.843 202.67 104.843C204.6 104.843 206.048 104.318 207.012 103.269C207.977 102.179 208.46 100.899 208.46 99.4309C208.46 97.9206 207.935 96.704 206.887 95.781C205.838 94.8161 204.139 93.8303 201.789 92.8234C200.615 92.32 199.86 91.9844 199.524 91.8165C199.23 91.6487 198.559 91.3131 197.51 90.8097C196.503 90.2643 195.811 89.7819 195.434 89.3623C195.056 88.9428 194.574 88.3974 193.986 87.7262C193.399 87.013 193 86.2369 192.791 85.3979C192.581 84.5588 192.476 83.6359 192.476 82.629C192.476 79.6924 193.525 77.5318 195.622 76.1474C197.72 74.763 200.321 74.0708 203.425 74.0708C206.572 74.0708 209.173 74.4903 211.229 75.3294L211.858 82.1885Z" fill="#090909"/>
<path d="M47.0806 64.8602C41.2451 64.8602 36.5145 60.1296 36.5145 54.2941L36.5145 30.0543C36.5145 24.2188 41.2451 19.4882 47.0806 19.4882C52.9161 19.4882 57.6467 24.2188 57.6467 30.0543L57.6467 54.2941C57.6467 60.1296 52.9161 64.8602 47.0806 64.8602Z" fill="url(#paint0_linear_112_148)"/>
<path d="M47.236 108.989C73.2383 108.989 94.3172 87.5623 94.3172 61.131L94.3172 19.8864C94.3172 16.9231 91.915 14.5209 88.9517 14.5209V14.5209C79.6386 14.5209 72.0887 22.0707 72.0887 31.3839L72.0887 61.131C72.0887 75.119 60.9618 86.4585 47.236 86.4585C33.5102 86.4585 22.3833 75.119 22.3833 61.131C22.3833 47.143 33.5102 35.8035 47.236 35.8035C51.2003 35.8035 54.2532 36.5295 57.5784 38.2119L57.7784 26.5846C57.8859 20.3308 53.4907 14.5209 47.236 14.5209V14.5209C21.2338 14.5209 0.154784 34.6997 0.154785 61.131C0.154785 87.5623 21.2338 108.989 47.236 108.989Z" fill="url(#paint1_linear_112_148)"/>
<mask id="mask0_112_148" style="mask-type:alpha" maskUnits="userSpaceOnUse" x="0" y="14" width="95" height="95">
<path d="M47.0812 108.989C73.0835 108.989 94.1625 87.5623 94.1625 61.131L94.1625 24.6264C94.1625 19.0453 89.6381 14.5209 84.0569 14.5209L82.0395 14.5209C76.4583 14.5209 71.9339 19.0453 71.9339 24.6264L71.9339 61.131C71.9339 75.119 60.807 86.4585 47.0812 86.4585C33.3555 86.4585 22.2285 75.119 22.2285 61.131C22.2285 47.143 33.3555 35.8035 47.0812 35.8035C52.0424 35.8035 57.5228 32.4459 57.6081 27.4855L57.6765 23.5081C57.7534 19.0332 54.6159 15.0074 50.1546 14.6501C49.1324 14.5682 48.1039 14.5209 47.0812 14.5209C21.079 14.5209 -8.85893e-07 34.6997 -5.70703e-07 61.131C-2.55512e-07 87.5623 21.079 108.989 47.0812 108.989Z" fill="#939494"/>
</mask>
<g mask="url(#mask0_112_148)">
<path d="M35.4266 37.8122C10.3166 42.3788 0.491193 63.2205 -1.39931 71.8524L-6.37158 61.2714L7.45756 16.0237L58.8895 10.9421L58.8895 35.167C57.0767 35.3758 49.8462 36.1972 35.4266 37.8122Z" fill="url(#paint2_linear_112_148)"/>
<path d="M29.5229 78.6893C33.0383 109.356 51.4589 118.749 61.6578 121.731C102.605 107.419 100.609 51.5298 95.1027 25.5481C79.2457 91.5085 42.7306 93.9946 29.5229 78.6893Z" fill="url(#paint3_linear_112_148)"/>
</g>
<defs>
<linearGradient id="paint0_linear_112_148" x1="75.6232" y1="108.989" x2="70.1583" y2="7.33141" gradientUnits="userSpaceOnUse">
<stop stop-color="#FFEF80"/>
<stop offset="0.354303" stop-color="#3EE8B5"/>
<stop offset="0.622136" stop-color="#0CC5DB"/>
<stop offset="1" stop-color="#0762FE"/>
</linearGradient>
<linearGradient id="paint1_linear_112_148" x1="75.6232" y1="108.989" x2="70.1583" y2="7.33141" gradientUnits="userSpaceOnUse">
<stop stop-color="#FFEF80"/>
<stop offset="0.354303" stop-color="#3EE8B5"/>
<stop offset="0.622136" stop-color="#0CC5DB"/>
<stop offset="1" stop-color="#0762FE"/>
</linearGradient>
<linearGradient id="paint2_linear_112_148" x1="45.9333" y1="71.8524" x2="42.6539" y2="6.28106" gradientUnits="userSpaceOnUse">
<stop stop-color="#FFEF80"/>
<stop offset="0.354303" stop-color="#3EE8B5"/>
<stop offset="0.622136" stop-color="#0CC5DB"/>
<stop offset="1" stop-color="#0762FE"/>
</linearGradient>
<linearGradient id="paint3_linear_112_148" x1="84.443" y1="121.731" x2="76.6798" y2="18.513" gradientUnits="userSpaceOnUse">
<stop stop-color="#FFEF80"/>
<stop offset="0.354303" stop-color="#3EE8B5"/>
<stop offset="0.622136" stop-color="#0CC5DB"/>
<stop offset="1" stop-color="#0762FE"/>
</linearGradient>
</defs>
</svg>
