<svg width="256" height="282" viewBox="0 0 256 282" fill="none" xmlns="http://www.w3.org/2000/svg">
<path d="M127.551 116.065C114.096 116.065 103.189 105.158 103.189 91.7031L103.189 35.8145C103.189 22.36 114.096 11.4529 127.551 11.4529C141.005 11.4529 151.912 22.36 151.912 35.8145L151.912 91.7031C151.912 105.158 141.005 116.065 127.551 116.065Z" fill="url(#paint0_linear_112_173)"/>
<path d="M127.909 217.811C187.861 217.811 236.462 168.408 236.462 107.467L236.462 12.2643C236.462 5.49094 230.864 5.48845e-05 224.091 5.49652e-05V5.49652e-05C202.803 5.52191e-05 185.211 17.2571 185.211 38.5448L185.211 107.467C185.211 139.718 159.556 165.863 127.909 165.863C96.2621 165.863 70.6073 139.718 70.6073 107.467C70.6073 75.2151 96.2621 49.0702 127.909 49.0702C137.049 49.0702 144.088 50.7441 151.755 54.6232L152.216 27.8147C152.464 13.3956 142.33 5.59402e-05 127.909 5.61122e-05V5.61122e-05C67.9569 5.68271e-05 19.3562 46.5252 19.3562 107.467C19.3562 168.408 67.9569 217.811 127.909 217.811Z" fill="url(#paint1_linear_112_173)"/>
<mask id="mask0_112_173" style="mask-type:alpha" maskUnits="userSpaceOnUse" x="19" y="0" width="218" height="218">
<path d="M127.553 217.811C187.505 217.811 236.105 168.408 236.105 107.467L236.105 21.0245C236.105 9.41301 226.692 5.85584e-05 215.081 5.86969e-05L205.879 5.88066e-05C194.267 5.89451e-05 184.854 9.41299 184.854 21.0245L184.854 107.467C184.854 139.718 159.2 165.863 127.553 165.863C95.9059 165.863 70.2511 139.718 70.2511 107.467C70.2511 75.2151 95.9059 49.0702 127.553 49.0702C138.991 49.0702 151.627 41.3287 151.824 29.8917L151.985 20.5336C152.16 10.3246 145.003 1.14659 134.826 0.313124C132.408 0.11505 129.973 5.97118e-05 127.553 5.97407e-05C67.6007 6.04556e-05 19 46.5252 19 107.467C19 168.408 67.6007 217.811 127.553 217.811Z" fill="#939494"/>
</mask>
<g mask="url(#mask0_112_173)">
<path d="M100.682 53.7013C42.7872 64.2302 20.1332 112.284 15.7744 132.186L4.31006 107.79L36.1952 3.46471L154.779 -8.25182L154.779 47.6023C150.599 48.0838 133.928 49.9777 100.682 53.7013Z" fill="url(#paint2_linear_112_173)"/>
<path d="M87.0687 147.95C95.174 218.657 137.645 240.313 161.16 247.188C255.571 214.191 250.968 85.3294 238.273 25.4248C201.712 177.506 117.521 183.238 87.0687 147.95Z" fill="url(#paint3_linear_112_173)"/>
</g>
<path d="M28.7876 263.501C28.2942 265.051 27.4485 266.308 26.2503 267.271C25.0521 268.235 23.5721 268.716 21.81 268.716C19.4842 268.716 17.5812 267.906 16.1011 266.285C14.621 264.64 13.881 262.573 13.881 260.082C13.881 257.404 14.715 255.196 16.3831 253.457C18.0746 251.719 19.9541 250.849 22.0215 250.849C23.9949 250.849 25.6277 251.589 26.9199 253.07C28.2355 254.526 28.8463 256.077 28.7524 257.721H17.4403V258.391C17.4403 260.811 17.9924 262.643 19.0966 263.888C20.2007 265.11 21.7043 265.721 23.6073 265.721C25.6277 265.721 27.284 264.934 28.5762 263.36L28.7876 263.501ZM21.8805 251.484C20.5884 251.484 19.5664 252.012 18.8146 253.07C18.0863 254.103 17.6517 255.466 17.5107 257.157L25.1579 256.981V256.594C25.1579 253.187 24.0654 251.484 21.8805 251.484ZM33.1266 268.188H29.1092V268.117C29.861 267.553 30.4953 266.978 31.0121 266.39C31.529 265.803 32.2338 264.934 33.1266 263.783L35.6638 260.364L32.6332 255.536C31.3645 253.516 30.2956 252.153 29.4263 251.449V251.378H35.7343V251.449C35.0765 251.989 35.2527 253.07 36.2629 254.691L38.624 258.426L40.1394 256.276C41.4315 254.467 41.7369 252.858 41.0556 251.449V251.378H45.073V251.449C43.8278 252.459 42.5357 253.904 41.1966 255.783L38.9412 258.955L42.148 264.065C43.1348 265.639 44.239 266.989 45.4606 268.117V268.188H39.1879V268.117C39.4228 267.788 39.5285 267.448 39.505 267.095C39.4815 266.743 39.4111 266.461 39.2936 266.249C39.1761 266.014 38.9059 265.545 38.4831 264.84L35.981 260.893L34.1838 263.289C32.8681 265.028 32.5157 266.637 33.1266 268.117V268.188ZM56.1271 268.082C57.5367 268.082 58.6644 267.377 59.5102 265.967C60.3559 264.558 60.7788 262.655 60.7788 260.259C60.7788 257.839 60.3207 256.053 59.4044 254.902C58.4882 253.727 57.2313 253.14 55.6337 253.14C54.1302 253.14 52.8263 253.622 51.7221 254.585V261.668C51.7221 263.9 52.1685 265.533 53.0612 266.567C53.954 267.577 54.9759 268.082 56.1271 268.082ZM47.3875 276.117V276.046C47.9279 274.449 48.1981 272.193 48.1981 269.28V257.193C48.1981 255.337 47.6695 253.81 46.6123 252.611V252.541L51.5811 250.673V253.774L51.7926 253.81C53.5311 251.836 55.528 250.849 57.7834 250.849C59.7803 250.849 61.3896 251.672 62.6113 253.316C63.8565 254.937 64.479 257.028 64.479 259.589C64.479 262.244 63.7272 264.429 62.2237 266.144C60.7201 267.859 58.5704 268.716 55.7747 268.716C54.2006 268.716 52.8498 268.446 51.7221 267.906V269.245C51.7221 272.346 51.9805 274.613 52.4974 276.046V276.117H47.3875ZM81.3382 263.501C80.8448 265.051 79.999 266.308 78.8009 267.271C77.6027 268.235 76.1226 268.716 74.3606 268.716C72.0347 268.716 70.1318 267.906 68.6517 266.285C67.1716 264.64 66.4316 262.573 66.4316 260.082C66.4316 257.404 67.2656 255.196 68.9336 253.457C70.6251 251.719 72.5046 250.849 74.572 250.849C76.5455 250.849 78.1783 251.589 79.4704 253.07C80.7861 254.526 81.3969 256.077 81.3029 257.721H69.9908V258.391C69.9908 260.811 70.5429 262.643 71.6471 263.888C72.7513 265.11 74.2549 265.721 76.1579 265.721C78.1783 265.721 79.8346 264.934 81.1267 263.36L81.3382 263.501ZM74.4311 251.484C73.1389 251.484 72.117 252.012 71.3652 253.07C70.6369 254.103 70.2023 255.466 70.0613 257.157L77.7084 256.981V256.594C77.7084 253.187 76.616 251.484 74.4311 251.484ZM84.0043 268.188V268.117C84.5446 266.52 84.8148 264.264 84.8148 261.351V257.193C84.8148 255.337 84.2862 253.81 83.229 252.611V252.541L88.1979 250.673V254.973H88.3388C89.0906 254.08 89.6427 253.434 89.9951 253.034C90.3475 252.635 90.9114 252.177 91.6867 251.66C92.4854 251.12 93.2372 250.849 93.942 250.849L93.8715 255.149H93.7306C93.4252 254.89 92.9201 254.655 92.2153 254.444C91.534 254.209 90.9936 254.092 90.5942 254.092C89.8659 254.092 89.1141 254.62 88.3388 255.677V261.316C88.3388 264.44 88.5973 266.708 89.1141 268.117V268.188H84.0043ZM100.442 243.484C100.865 243.907 101.076 244.412 101.076 245C101.076 245.587 100.865 246.092 100.442 246.515C100.043 246.914 99.5492 247.114 98.9618 247.114C98.3745 247.114 97.8694 246.914 97.4465 246.515C97.0471 246.092 96.8474 245.587 96.8474 245C96.8474 244.412 97.0471 243.907 97.4465 243.484C97.8694 243.061 98.3745 242.85 98.9618 242.85C99.5492 242.85 100.043 243.061 100.442 243.484ZM96.5655 268.117C97.1058 265.838 97.376 263.583 97.376 261.351V257.334C97.376 255.501 96.8474 253.986 95.7902 252.788V252.541L100.9 250.673V261.316C100.9 263.054 100.947 264.405 101.041 265.368C101.135 266.308 101.346 267.224 101.675 268.117V268.188H96.5655V268.117ZM110.038 268.188H104.928V268.117C105.469 266.52 105.739 264.264 105.739 261.351V257.193C105.739 255.337 105.21 253.81 104.153 252.611V252.541L109.122 250.673V254.056L109.263 254.092C110.719 251.93 112.517 250.849 114.654 250.849C117.121 250.849 118.507 251.918 118.813 254.056L118.919 254.092C120.399 251.93 122.208 250.849 124.346 250.849C127.188 250.849 128.61 252.412 128.61 255.536V261.316C128.61 263.125 128.645 264.487 128.715 265.404C128.809 266.32 129.032 267.224 129.385 268.117V268.188H124.31V268.117C124.827 266.449 125.086 264.194 125.086 261.351V256.347C125.086 254.115 124.216 252.999 122.478 252.999C120.951 252.999 119.764 253.633 118.919 254.902V261.316C118.919 263.078 118.966 264.429 119.059 265.368C119.153 266.285 119.377 267.201 119.729 268.117V268.188H114.619V268.117C115.136 266.614 115.394 264.358 115.394 261.351V256.347C115.394 254.115 114.525 252.999 112.787 252.999C111.283 252.999 110.108 253.633 109.263 254.902V261.316C109.263 264.44 109.521 266.708 110.038 268.117V268.188ZM146.794 263.501C146.301 265.051 145.455 266.308 144.257 267.271C143.059 268.235 141.579 268.716 139.817 268.716C137.491 268.716 135.588 267.906 134.108 266.285C132.628 264.64 131.887 262.573 131.887 260.082C131.887 257.404 132.721 255.196 134.39 253.457C136.081 251.719 137.961 250.849 140.028 250.849C142.001 250.849 143.634 251.589 144.926 253.07C146.242 254.526 146.853 256.077 146.759 257.721H135.447V258.391C135.447 260.811 135.999 262.643 137.103 263.888C138.207 265.11 139.711 265.721 141.614 265.721C143.634 265.721 145.29 264.934 146.583 263.36L146.794 263.501ZM139.887 251.484C138.595 251.484 137.573 252.012 136.821 253.07C136.093 254.103 135.658 255.466 135.517 257.157L143.164 256.981V256.594C143.164 253.187 142.072 251.484 139.887 251.484ZM154.57 268.188H149.46V268.117C150.001 266.52 150.271 264.264 150.271 261.351V257.193C150.271 255.337 149.742 253.81 148.685 252.611V252.541L153.654 250.673V254.056L153.795 254.092C155.58 251.93 157.471 250.849 159.468 250.849C161.066 250.849 162.288 251.308 163.133 252.224C164.003 253.117 164.437 254.362 164.437 255.959V261.316C164.437 263.078 164.484 264.429 164.578 265.368C164.672 266.285 164.895 267.201 165.248 268.117V268.188H160.138V268.117C160.655 266.449 160.913 264.194 160.913 261.351V256.77C160.913 255.666 160.643 254.761 160.103 254.056C159.586 253.352 158.775 252.999 157.671 252.999C156.191 252.999 154.899 253.586 153.795 254.761V261.316C153.795 264.44 154.053 266.708 154.57 268.117V268.188ZM173.35 268.716C170.719 268.716 169.403 267.295 169.403 264.452V252.012H167.5V251.801L172.61 247.396H172.963V251.378H177.509V252.012H172.963V264.346C172.963 266.085 173.785 266.954 175.429 266.954C176.322 266.954 177.098 266.755 177.755 266.355L177.861 266.496C176.804 267.976 175.3 268.716 173.35 268.716ZM186.005 268.117C186.522 267.013 186.78 265.404 186.78 263.289V247.255C186.78 245.422 186.252 243.907 185.194 242.709V242.638L190.304 240.771V263.254C190.304 265.533 190.574 267.154 191.115 268.117V268.188H186.005V268.117ZM199.617 266.813C200.816 266.813 201.779 266.473 202.507 265.791V260.435C198.866 261.257 197.045 262.631 197.045 264.558C197.045 265.263 197.268 265.815 197.714 266.214C198.161 266.614 198.795 266.813 199.617 266.813ZM205.503 268.611C203.858 268.611 202.883 267.87 202.578 266.39C201.215 267.941 199.523 268.716 197.503 268.716C196.399 268.716 195.494 268.458 194.79 267.941C194.085 267.424 193.732 266.684 193.732 265.721C193.732 264.617 194.226 263.63 195.212 262.761C196.199 261.891 197.303 261.245 198.525 260.822C199.77 260.376 201.098 260.047 202.507 259.836V255.995C202.507 255.008 202.26 254.256 201.767 253.739C201.274 253.222 200.44 252.964 199.265 252.964C197.433 252.964 195.87 253.492 194.578 254.55L194.402 254.338C196.023 252.012 198.361 250.849 201.415 250.849C203.036 250.849 204.21 251.249 204.939 252.048C205.667 252.823 206.031 253.821 206.031 255.043V265.086C206.031 266.12 206.489 266.637 207.406 266.637C207.993 266.637 208.568 266.414 209.132 265.967L209.203 266.038C208.334 267.753 207.1 268.611 205.503 268.611ZM218.543 268.716C216.287 268.716 214.396 268.129 212.869 266.954L211.107 268.54H210.966V247.255C210.966 245.399 210.437 243.872 209.38 242.674V242.603L214.49 240.771V253.81H214.56C216.299 251.836 218.272 250.849 220.481 250.849C222.548 250.849 224.193 251.66 225.414 253.281C226.636 254.902 227.247 257.005 227.247 259.589C227.247 262.244 226.495 264.429 224.991 266.144C223.488 267.859 221.338 268.716 218.543 268.716ZM218.895 268.082C220.305 268.082 221.432 267.377 222.278 265.967C223.124 264.558 223.547 262.655 223.547 260.259C223.547 257.839 223.089 256.053 222.172 254.902C221.256 253.727 219.987 253.14 218.366 253.14C216.886 253.14 215.594 253.622 214.49 254.585V261.668C214.49 263.877 214.936 265.498 215.829 266.531C216.745 267.565 217.767 268.082 218.895 268.082ZM240.489 255.395L240.277 255.466C238.727 252.811 236.906 251.484 234.815 251.484C233.922 251.484 233.217 251.73 232.701 252.224C232.184 252.717 231.925 253.34 231.925 254.092C231.925 254.726 232.172 255.301 232.665 255.818C233.159 256.312 233.664 256.688 234.181 256.946C234.698 257.181 235.461 257.498 236.471 257.897C238.022 258.555 239.243 259.307 240.136 260.153C241.029 260.975 241.475 262.138 241.475 263.642C241.475 265.31 240.865 266.578 239.643 267.448C238.421 268.293 236.835 268.716 234.885 268.716C233.194 268.716 231.467 268.411 229.705 267.8L229.353 263.289L229.564 263.219C230.457 264.934 231.361 266.179 232.278 266.954C233.194 267.706 234.216 268.082 235.344 268.082C236.424 268.082 237.235 267.788 237.775 267.201C238.315 266.59 238.586 265.874 238.586 265.051C238.586 264.205 238.292 263.524 237.705 263.007C237.117 262.467 236.166 261.915 234.85 261.351C234.192 261.069 233.77 260.881 233.582 260.787C233.417 260.693 233.041 260.505 232.454 260.223C231.89 259.918 231.502 259.648 231.291 259.413C231.08 259.178 230.809 258.872 230.48 258.497C230.152 258.097 229.928 257.663 229.811 257.193C229.693 256.723 229.635 256.206 229.635 255.642C229.635 253.998 230.222 252.788 231.397 252.012C232.571 251.237 234.028 250.849 235.766 250.849C237.528 250.849 238.985 251.084 240.136 251.554L240.489 255.395Z" fill="white"/>
<defs>
<linearGradient id="paint0_linear_112_173" x1="193.36" y1="217.811" x2="180.76" y2="-16.5764" gradientUnits="userSpaceOnUse">
<stop stop-color="#FFEF80"/>
<stop offset="0.354303" stop-color="#3EE8B5"/>
<stop offset="0.622136" stop-color="#0CC5DB"/>
<stop offset="1" stop-color="#0762FE"/>
</linearGradient>
<linearGradient id="paint1_linear_112_173" x1="193.36" y1="217.811" x2="180.76" y2="-16.5764" gradientUnits="userSpaceOnUse">
<stop stop-color="#FFEF80"/>
<stop offset="0.354303" stop-color="#3EE8B5"/>
<stop offset="0.622136" stop-color="#0CC5DB"/>
<stop offset="1" stop-color="#0762FE"/>
</linearGradient>
<linearGradient id="paint2_linear_112_173" x1="124.907" y1="132.186" x2="117.346" y2="-18.9984" gradientUnits="userSpaceOnUse">
<stop stop-color="#FFEF80"/>
<stop offset="0.354303" stop-color="#3EE8B5"/>
<stop offset="0.622136" stop-color="#0CC5DB"/>
<stop offset="1" stop-color="#0762FE"/>
</linearGradient>
<linearGradient id="paint3_linear_112_173" x1="213.695" y1="247.188" x2="195.796" y2="9.20419" gradientUnits="userSpaceOnUse">
<stop stop-color="#FFEF80"/>
<stop offset="0.354303" stop-color="#3EE8B5"/>
<stop offset="0.622136" stop-color="#0CC5DB"/>
<stop offset="1" stop-color="#0762FE"/>
</linearGradient>
</defs>
</svg>
