<svg width="480" height="129" viewBox="0 0 480 129" fill="none" xmlns="http://www.w3.org/2000/svg">
<path d="M165.282 43.6921C164.24 46.9656 162.454 49.6191 159.925 51.6527C157.395 53.6862 154.271 54.703 150.551 54.703C145.64 54.703 141.623 52.9918 138.498 49.5695C135.374 46.0976 133.811 41.733 133.811 36.4755C133.811 30.8213 135.572 26.159 139.093 22.4887C142.665 18.8184 146.632 16.9833 150.997 16.9833C155.163 16.9833 158.61 18.5456 161.338 21.6703C164.116 24.7455 165.406 28.019 165.207 31.4909H141.325V32.9044C141.325 38.0131 142.491 41.8818 144.822 44.5105C147.153 47.0896 150.328 48.3792 154.345 48.3792C158.61 48.3792 162.107 46.7176 164.835 43.3945L165.282 43.6921ZM150.7 18.3224C147.972 18.3224 145.814 19.4384 144.227 21.6703C142.689 23.8527 141.772 26.7294 141.474 30.3005L157.619 29.9285V29.1101C157.619 21.9183 155.312 18.3224 150.7 18.3224Z" fill="white"/>
<path d="M174.442 53.587H165.96V53.4382C167.548 52.2479 168.887 51.0327 169.978 49.7927C171.069 48.5528 172.557 46.7176 174.442 44.2873L179.798 37.0707L173.4 26.8782C170.722 22.6127 168.465 19.736 166.63 18.248V18.0993H179.947V18.248C178.558 19.3888 178.93 21.6703 181.063 25.0927L186.048 32.9788L189.247 28.4406C191.975 24.6215 192.62 21.224 191.181 18.248V18.0993H199.663V18.248C197.034 20.3808 194.306 23.4311 191.479 27.399L186.717 34.0948L193.488 44.8825C195.571 48.2056 197.902 51.0575 200.481 53.4382V53.587H187.238V53.4382C187.734 52.7439 187.957 52.0247 187.908 51.2807C187.858 50.5367 187.709 49.9415 187.461 49.4951C187.213 48.9992 186.643 48.0072 185.75 46.5192L180.468 38.1867L176.674 43.2457C173.896 46.916 173.152 50.3135 174.442 53.4382V53.587Z" fill="white"/>
<path d="M223 53.3638C225.976 53.3638 228.356 51.8759 230.142 48.9C231.927 45.924 232.82 41.9066 232.82 36.8475C232.82 31.7389 231.853 27.9694 229.919 25.539C227.984 23.0591 225.331 21.8191 221.958 21.8191C218.784 21.8191 216.031 22.8359 213.7 24.8695V39.8234C213.7 44.5353 214.642 47.9824 216.527 50.1647C218.412 52.2975 220.569 53.3638 223 53.3638ZM204.549 70.3265V70.1778C205.69 66.805 206.26 62.0436 206.26 55.8934V30.3749C206.26 26.4566 205.144 23.2327 202.912 20.7032V20.5544L213.402 16.6113V23.1583L213.849 23.2327C217.519 19.0664 221.735 16.9833 226.496 16.9833C230.712 16.9833 234.11 18.7192 236.689 22.1911C239.318 25.6134 240.632 30.0277 240.632 35.434C240.632 41.0386 239.045 45.6513 235.871 49.272C232.696 52.8926 228.158 54.703 222.256 54.703C218.933 54.703 216.081 54.1326 213.7 52.9918V55.819C213.7 62.366 214.246 67.1522 215.337 70.1778V70.3265H204.549Z" fill="white"/>
<path d="M276.224 43.6921C275.183 46.9656 273.397 49.6191 270.868 51.6527C268.338 53.6862 265.214 54.703 261.494 54.703C256.583 54.703 252.566 52.9918 249.441 49.5695C246.316 46.0976 244.754 41.733 244.754 36.4755C244.754 30.8213 246.515 26.159 250.036 22.4887C253.607 18.8184 257.575 16.9833 261.94 16.9833C266.106 16.9833 269.553 18.5456 272.281 21.6703C275.059 24.7455 276.348 28.019 276.15 31.4909H252.268V32.9044C252.268 38.0131 253.434 41.8818 255.765 44.5105C258.096 47.0896 261.27 48.3792 265.288 48.3792C269.553 48.3792 273.05 46.7176 275.778 43.3945L276.224 43.6921ZM261.642 18.3224C258.914 18.3224 256.757 19.4384 255.17 21.6703C253.632 23.8527 252.715 26.7294 252.417 30.3005L268.561 29.9285V29.1101C268.561 21.9183 266.255 18.3224 261.642 18.3224Z" fill="white"/>
<path d="M281.853 53.587V53.4382C282.994 50.0655 283.564 45.3041 283.564 39.1538V30.3749C283.564 26.4566 282.448 23.2327 280.216 20.7032V20.5544L290.706 16.6113V25.6878H291.004C292.591 23.8031 293.757 22.4391 294.501 21.596C295.245 20.7528 296.435 19.7856 298.072 18.6944C299.758 17.5537 301.345 16.9833 302.833 16.9833L302.684 26.0598H302.387C301.742 25.5142 300.676 25.0183 299.188 24.5719C297.749 24.0759 296.609 23.8279 295.765 23.8279C294.228 23.8279 292.641 24.9439 291.004 27.1758V39.0794C291.004 45.6761 291.55 50.4623 292.641 53.4382V53.587H281.853Z" fill="white"/>
<path d="M316.556 1.43413C317.448 2.32691 317.895 3.39328 317.895 4.63324C317.895 5.8732 317.448 6.93957 316.556 7.83235C315.712 8.67552 314.671 9.09711 313.431 9.09711C312.191 9.09711 311.125 8.67552 310.232 7.83235C309.389 6.93957 308.967 5.8732 308.967 4.63324C308.967 3.39328 309.389 2.32691 310.232 1.43413C311.125 0.541358 312.191 0.0949707 313.431 0.0949707C314.671 0.0949707 315.712 0.541358 316.556 1.43413ZM308.372 53.4382C309.513 48.6272 310.083 43.8657 310.083 39.1538V30.6725C310.083 26.8038 308.967 23.6047 306.735 21.0752V20.5544L317.523 16.6113V39.0794C317.523 42.7497 317.622 45.6017 317.82 47.6352C318.019 49.6191 318.465 51.5535 319.16 53.4382V53.587H308.372V53.4382Z" fill="white"/>
<path d="M336.814 53.587H326.027V53.4382C327.168 50.0655 327.738 45.3041 327.738 39.1538V30.3749C327.738 26.4566 326.622 23.2327 324.39 20.7032V20.5544L334.88 16.6113V23.7535L335.178 23.8279C338.253 19.2648 342.047 16.9833 346.561 16.9833C351.768 16.9833 354.695 19.24 355.34 23.7535L355.563 23.8279C358.687 19.2648 362.507 16.9833 367.02 16.9833C373.021 16.9833 376.022 20.2816 376.022 26.8782V39.0794C376.022 42.8985 376.097 45.7753 376.245 47.7096C376.444 49.6439 376.915 51.5535 377.659 53.4382V53.587H366.946V53.4382C368.037 49.9167 368.582 45.1553 368.582 39.1538V28.5893C368.582 23.8775 366.747 21.5216 363.077 21.5216C359.853 21.5216 357.348 22.8607 355.563 25.539V39.0794C355.563 42.7993 355.662 45.6513 355.86 47.6352C356.059 49.5695 356.53 51.5039 357.274 53.4382V53.587H346.486V53.4382C347.577 50.2639 348.123 45.5025 348.123 39.1538V28.5893C348.123 23.8775 346.288 21.5216 342.617 21.5216C339.443 21.5216 336.963 22.8607 335.178 25.539V39.0794C335.178 45.6761 335.723 50.4623 336.814 53.4382V53.587Z" fill="white"/>
<path d="M414.413 43.6921C413.371 46.9656 411.585 49.6191 409.056 51.6527C406.526 53.6862 403.402 54.703 399.682 54.703C394.772 54.703 390.754 52.9918 387.629 49.5695C384.505 46.0976 382.942 41.733 382.942 36.4755C382.942 30.8213 384.703 26.159 388.225 22.4887C391.796 18.8184 395.764 16.9833 400.128 16.9833C404.294 16.9833 407.742 18.5456 410.469 21.6703C413.247 24.7455 414.537 28.019 414.338 31.4909H390.456V32.9044C390.456 38.0131 391.622 41.8818 393.953 44.5105C396.284 47.0896 399.459 48.3792 403.476 48.3792C407.742 48.3792 411.238 46.7176 413.966 43.3945L414.413 43.6921ZM399.831 18.3224C397.103 18.3224 394.945 19.4384 393.358 21.6703C391.82 23.8527 390.903 26.7294 390.605 30.3005L406.75 29.9285V29.1101C406.75 21.9183 404.443 18.3224 399.831 18.3224Z" fill="white"/>
<path d="M430.829 53.587H420.041V53.4382C421.182 50.0655 421.752 45.3041 421.752 39.1538V30.3749C421.752 26.4566 420.636 23.2327 418.404 20.7032V20.5544L428.895 16.6113V23.7535L429.192 23.8279C432.962 19.2648 436.954 16.9833 441.17 16.9833C444.543 16.9833 447.122 17.9505 448.908 19.8848C450.743 21.7695 451.66 24.3983 451.66 27.771V39.0794C451.66 42.7993 451.76 45.6513 451.958 47.6352C452.156 49.5695 452.628 51.5039 453.371 53.4382V53.587H442.584V53.4382C443.675 49.9167 444.221 45.1553 444.221 39.1538V29.4821C444.221 27.151 443.65 25.2414 442.509 23.7535C441.418 22.2655 439.707 21.5216 437.376 21.5216C434.251 21.5216 431.523 22.7615 429.192 25.2414V39.0794C429.192 45.6761 429.738 50.4623 430.829 53.4382V53.587Z" fill="white"/>
<path d="M470.477 54.703C464.922 54.703 462.145 51.7023 462.145 45.7009V19.4384H458.127V18.992L468.915 9.69229H469.659V18.0993H479.256V19.4384H469.659V45.4777C469.659 49.148 471.395 50.9831 474.867 50.9831C476.751 50.9831 478.388 50.5615 479.777 49.7183L480 50.0159C477.768 53.1406 474.594 54.703 470.477 54.703Z" fill="white"/>
<path d="M135.448 124.121C136.539 121.79 137.085 118.393 137.085 113.929V80.0778C137.085 76.2091 135.969 73.01 133.737 70.4805V70.3317L144.525 66.3886V113.854C144.525 118.665 145.095 122.088 146.236 124.121V124.27H135.448V124.121Z" fill="white"/>
<path d="M164.186 121.369C166.716 121.369 168.75 120.649 170.287 119.211V107.903C162.599 109.639 158.755 112.54 158.755 116.607C158.755 118.095 159.227 119.261 160.169 120.104C161.111 120.947 162.451 121.369 164.186 121.369ZM176.611 125.163C173.139 125.163 171.081 123.601 170.436 120.476C167.559 123.749 163.988 125.386 159.723 125.386C157.391 125.386 155.482 124.84 153.994 123.749C152.506 122.658 151.762 121.096 151.762 119.062C151.762 116.731 152.804 114.648 154.887 112.813C156.97 110.978 159.301 109.614 161.88 108.721C164.509 107.779 167.311 107.084 170.287 106.638V98.5284C170.287 96.4453 169.766 94.8582 168.725 93.767C167.683 92.6758 165.922 92.1302 163.442 92.1302C159.574 92.1302 156.275 93.2462 153.548 95.4781L153.176 95.0318C156.598 90.1215 161.533 87.6664 167.981 87.6664C171.403 87.6664 173.883 88.5095 175.421 90.1959C176.958 91.8326 177.727 93.9406 177.727 96.5197V117.723C177.727 119.905 178.694 120.997 180.628 120.997C181.868 120.997 183.084 120.525 184.274 119.583L184.423 119.732C182.588 123.353 179.984 125.163 176.611 125.163Z" fill="white"/>
<path d="M204.14 125.386C199.379 125.386 195.386 124.146 192.162 121.666L188.442 125.014H188.145V80.0778C188.145 76.1595 187.029 72.9356 184.797 70.4061V70.2573L195.585 66.3886V93.9158H195.733C199.404 89.7495 203.57 87.6664 208.232 87.6664C212.597 87.6664 216.069 89.3775 218.648 92.7998C221.227 96.2221 222.517 100.661 222.517 106.117C222.517 111.722 220.93 116.334 217.755 119.955C214.581 123.576 210.043 125.386 204.14 125.386ZM204.884 124.047C207.86 124.047 210.241 122.559 212.027 119.583C213.812 116.607 214.705 112.59 214.705 107.531C214.705 102.422 213.738 98.6524 211.803 96.2221C209.869 93.7422 207.191 92.5022 203.768 92.5022C200.644 92.5022 197.916 93.519 195.585 95.5525V110.507C195.585 115.169 196.527 118.591 198.412 120.773C200.346 122.956 202.504 124.047 204.884 124.047Z" fill="white"/>
<path d="M250.472 97.2637L250.026 97.4125C246.752 91.8078 242.908 89.0055 238.494 89.0055C236.609 89.0055 235.122 89.5263 234.03 90.5679C232.939 91.6095 232.394 92.9238 232.394 94.511C232.394 95.8501 232.914 97.0653 233.956 98.1565C234.998 99.198 236.064 99.9916 237.155 100.537C238.246 101.033 239.858 101.703 241.991 102.546C245.264 103.935 247.844 105.522 249.728 107.307C251.613 109.043 252.555 111.498 252.555 114.673C252.555 118.194 251.266 120.873 248.687 122.708C246.108 124.493 242.76 125.386 238.643 125.386C235.072 125.386 231.426 124.741 227.707 123.452L226.963 113.929L227.409 113.78C229.294 117.401 231.203 120.029 233.138 121.666C235.072 123.253 237.229 124.047 239.61 124.047C241.892 124.047 243.603 123.427 244.744 122.187C245.884 120.897 246.455 119.385 246.455 117.649C246.455 115.863 245.835 114.425 244.595 113.334C243.355 112.193 241.346 111.027 238.569 109.837C237.18 109.242 236.287 108.845 235.89 108.647C235.543 108.448 234.75 108.051 233.51 107.456C232.319 106.811 231.501 106.241 231.054 105.745C230.608 105.249 230.038 104.604 229.343 103.811C228.649 102.968 228.178 102.05 227.93 101.058C227.682 100.066 227.558 98.9748 227.558 97.7845C227.558 94.3126 228.798 91.7582 231.278 90.1215C233.758 88.4847 236.833 87.6664 240.503 87.6664C244.223 87.6664 247.298 88.1624 249.728 89.1543L250.472 97.2637Z" fill="white"/>
<path d="M55.6617 76.7772C48.7626 76.7772 43.1698 71.1844 43.1698 64.2853L43.1698 35.6273C43.1698 28.7282 48.7626 23.1354 55.6617 23.1354C62.5608 23.1354 68.1536 28.7282 68.1536 35.6273L68.1536 64.2853C68.1536 71.1844 62.5608 76.7772 55.6617 76.7772Z" fill="url(#paint0_linear_112_131)"/>
<path d="M55.8454 128.949C86.587 128.949 111.508 103.617 111.508 72.3683L111.508 23.2012C111.508 19.9215 108.849 17.2627 105.569 17.2627L103.892 17.2627C93.5839 17.2627 85.2279 25.6188 85.2279 35.9264L85.2279 72.3683C85.2279 88.9058 72.0729 102.312 55.8454 102.312C39.6179 102.312 26.4629 88.9058 26.4629 72.3683C26.4629 55.8307 39.6179 42.4244 55.8454 42.4244C60.5323 42.4244 64.1416 43.2827 68.0729 45.2718L68.3093 31.5252C68.4364 24.1316 63.2402 17.2627 55.8454 17.2627V17.2627C25.1038 17.2627 0.18286 41.1194 0.182861 72.3683C0.182861 103.617 25.1038 128.949 55.8454 128.949Z" fill="url(#paint1_linear_112_131)"/>
<mask id="mask0_112_131" style="mask-type:alpha" maskUnits="userSpaceOnUse" x="0" y="17" width="112" height="112">
<path d="M55.6625 128.949C86.4041 128.949 111.325 103.617 111.325 72.3682L111.325 27.4428C111.325 21.8205 106.767 17.2626 101.145 17.2626L95.2252 17.2626C89.6029 17.2626 85.0451 21.8205 85.0451 27.4428L85.0451 72.3682C85.0451 88.9057 71.8901 102.312 55.6625 102.312C39.435 102.312 26.28 88.9057 26.28 72.3682C26.28 55.8306 39.435 42.4243 55.6625 42.4243C61.528 42.4243 68.0073 38.4547 68.1081 32.5902L68.1993 27.2873C68.2843 22.344 64.8183 17.9154 59.8946 17.4667C58.4897 17.3386 57.0714 17.2626 55.6625 17.2626C24.921 17.2626 -1.04736e-06 41.1193 -6.74722e-07 72.3682C-3.02083e-07 103.617 24.921 128.949 55.6625 128.949Z" fill="#939494"/>
</mask>
<g mask="url(#mask0_112_131)">
<path d="M41.8839 44.7991C12.1972 50.198 0.580912 74.8385 -1.65416 85.0437L-7.53271 72.5341L8.81701 19.0393L69.6233 13.0314L69.6233 41.6717C67.4801 41.9186 58.9317 42.8898 41.8839 44.7991Z" fill="url(#paint2_linear_112_131)"/>
<path d="M34.9041 93.1267C39.0602 129.383 60.8381 140.488 72.896 144.013C121.307 127.093 118.947 61.0169 112.437 30.2997C93.6896 108.282 50.519 111.222 34.9041 93.1267Z" fill="url(#paint3_linear_112_131)"/>
</g>
<defs>
<linearGradient id="paint0_linear_112_131" x1="89.4066" y1="128.949" x2="82.9456" y2="8.76285" gradientUnits="userSpaceOnUse">
<stop stop-color="#FFEF80"/>
<stop offset="0.354303" stop-color="#3EE8B5"/>
<stop offset="0.622136" stop-color="#0CC5DB"/>
<stop offset="1" stop-color="#0762FE"/>
</linearGradient>
<linearGradient id="paint1_linear_112_131" x1="89.4066" y1="128.949" x2="82.9456" y2="8.76285" gradientUnits="userSpaceOnUse">
<stop stop-color="#FFEF80"/>
<stop offset="0.354303" stop-color="#3EE8B5"/>
<stop offset="0.622136" stop-color="#0CC5DB"/>
<stop offset="1" stop-color="#0762FE"/>
</linearGradient>
<linearGradient id="paint2_linear_112_131" x1="54.3056" y1="85.0437" x2="50.4285" y2="7.5209" gradientUnits="userSpaceOnUse">
<stop stop-color="#FFEF80"/>
<stop offset="0.354303" stop-color="#3EE8B5"/>
<stop offset="0.622136" stop-color="#0CC5DB"/>
<stop offset="1" stop-color="#0762FE"/>
</linearGradient>
<linearGradient id="paint3_linear_112_131" x1="99.8342" y1="144.013" x2="90.656" y2="21.9822" gradientUnits="userSpaceOnUse">
<stop stop-color="#FFEF80"/>
<stop offset="0.354303" stop-color="#3EE8B5"/>
<stop offset="0.622136" stop-color="#0CC5DB"/>
<stop offset="1" stop-color="#0762FE"/>
</linearGradient>
</defs>
</svg>
